<svg width="2699.9999999999995" height="1664" xmlns="http://www.w3.org/2000/svg">
 <g>
  <title>background</title>
  <rect x="-1" y="-1" width="2702" height="1666" id="canvas_background" fill="none"/>
 </g>

 <g>
  <title>Layer 1</title>
  <path d="m0,597q0,-108 37.5,-203.5t103.5,-166.5t152,-123t185,-78t202,-26q158,0 294,66.5t221,193.5t85,287q0,96 -19,188t-60,177t-100,149.5t-145,103t-189,38.5q-68,0 -135,-32t-96,-88q-10,39 -28,112.5t-23.5,95t-20.5,71t-26,71t-32,62.5t-46,77.5t-62,86.5l-14,5l-9,-10q-15,-157 -15,-188q0,-92 21.5,-206.5t66.5,-287.5t52,-203q-32,-65 -32,-169q0,-83 52,-156t132,-73q61,0 95,40.5t34,102.5q0,66 -44,191t-44,187q0,63 45,104.5t109,41.5q55,0 102,-25t78.5,-68t56,-95t38,-110.5t20,-111t6.5,-99.5q0,-173 -109.5,-269.5t-285.5,-96.5q-200,0 -334,129.5t-134,328.5q0,44 12.5,85t27,65t27,45.5t12.5,30.5q0,28 -15,73t-37,45q-2,0 -17,-3q-51,-15 -90.5,-56t-61,-94.5t-32.5,-108t-11,-106.5z" id="svg_1" fill="#bc0000"/>
  <text fill="#bc0000" stroke-width="0" x="819.12637" y="1355.72385" id="svg_2" font-size="80" font-family="'League Gothic', sans-serif" text-anchor="start" xml:space="preserve" transform="matrix(6.56572 0 0 4.10826 -4931.85 -3942.11)" stroke="#000">ROSHOP</text>
 </g>
</svg>